<mxfile host="Electron" modified="2023-11-14T04:26:54.551Z" agent="Mozilla/5.0 (X11; Linux x86_64) AppleWebKit/537.36 (KHTML, like Gecko) draw.io/22.0.3 Chrome/114.0.5735.289 Electron/25.8.4 Safari/537.36" etag="l4VKV6967O937yiCqaKC" version="22.0.3" type="device">
  <diagram name="Page-1" id="c7558073-3199-34d8-9f00-42111426c3f3">
    <mxGraphModel dx="1050" dy="731" grid="1" gridSize="10" guides="1" tooltips="1" connect="1" arrows="1" fold="1" page="1" pageScale="1" pageWidth="1169" pageHeight="827" background="none" math="0" shadow="0">
      <root>
        <mxCell id="0" />
        <mxCell id="1" parent="0" />
        <mxCell id="rLxRKN44ufM92AqsDXj2-80" style="edgeStyle=orthogonalEdgeStyle;rounded=0;orthogonalLoop=1;jettySize=auto;html=1;exitX=0.5;exitY=0;exitDx=0;exitDy=0;entryX=0.25;entryY=0;entryDx=0;entryDy=0;strokeWidth=2;strokeColor=#0000FF;" parent="1" source="2" target="5" edge="1">
          <mxGeometry relative="1" as="geometry" />
        </mxCell>
        <mxCell id="2" value="&lt;p style=&quot;margin: 4px 0px 0px; text-align: center; text-decoration: underline; font-size: 14px;&quot;&gt;&lt;span style=&quot;background-color: initial;&quot;&gt;&lt;font style=&quot;font-size: 14px;&quot;&gt;&lt;br&gt;&lt;/font&gt;&lt;/span&gt;&lt;/p&gt;&lt;p style=&quot;margin: 4px 0px 0px; text-align: center; text-decoration: underline; font-size: 14px;&quot;&gt;&lt;span style=&quot;background-color: initial;&quot;&gt;&lt;font style=&quot;font-size: 14px;&quot;&gt;General&lt;/font&gt;&lt;/span&gt;&lt;/p&gt;&lt;p style=&quot;margin: 4px 0px 0px; text-align: center; text-decoration: underline; font-size: 14px;&quot;&gt;&lt;span style=&quot;background-color: initial;&quot;&gt;&lt;font style=&quot;font-size: 14px;&quot;&gt;Users&lt;/font&gt;&lt;/span&gt;&lt;br&gt;&lt;/p&gt;" style="verticalAlign=middle;align=center;overflow=fill;fontSize=12;fontFamily=Helvetica;html=1;rounded=1;fontStyle=1;strokeWidth=3;fillColor=#E6FFCC" parent="1" vertex="1">
          <mxGeometry x="230" y="371" width="110" height="90" as="geometry" />
        </mxCell>
        <mxCell id="8" value="&lt;p style=&quot;margin: 4px 0px 0px; text-align: center; text-decoration: underline; font-size: 14px;&quot;&gt;&lt;font style=&quot;font-size: 14px;&quot;&gt;&lt;br&gt;&lt;/font&gt;&lt;/p&gt;&lt;p style=&quot;margin: 4px 0px 0px; text-align: center; text-decoration: underline; font-size: 14px;&quot;&gt;&lt;font style=&quot;font-size: 14px;&quot;&gt;Support and&lt;/font&gt;&lt;/p&gt;&lt;p style=&quot;margin: 4px 0px 0px; text-align: center; text-decoration: underline; font-size: 14px;&quot;&gt;&lt;font style=&quot;font-size: 14px;&quot;&gt;Moderation&lt;/font&gt;&lt;/p&gt;" style="verticalAlign=middle;align=center;overflow=fill;fontSize=12;fontFamily=Helvetica;html=1;rounded=1;fontStyle=1;strokeWidth=3;fillColor=#E6FFCC" parent="1" vertex="1">
          <mxGeometry x="860" y="368" width="110" height="91" as="geometry" />
        </mxCell>
        <mxCell id="54" value="posts, tweets, profile info, interests, media" style="text;spacingTop=-5;align=left;fontColor=#0000FF;fontSize=18;" parent="1" vertex="1">
          <mxGeometry x="290" y="320" width="240" height="30" as="geometry" />
        </mxCell>
        <mxCell id="57" value="Tweets, community content,&#xa;downloads, live-streaming,&#xa;profile, feeds, updates,&#xa;notifications, ads" style="text;spacingTop=-5;align=left;fontColor=#EB0C05;fontSize=18;" parent="1" vertex="1">
          <mxGeometry x="290" y="461" width="240" height="84" as="geometry" />
        </mxCell>
        <mxCell id="68" value="" style="edgeStyle=elbowEdgeStyle;elbow=horizontal;strokeColor=#27F507;strokeWidth=2;entryX=0.75;entryY=1;entryDx=0;entryDy=0;" parent="1" source="8" target="5" edge="1">
          <mxGeometry width="100" height="100" relative="1" as="geometry">
            <mxPoint x="805" y="331" as="sourcePoint" />
            <mxPoint x="795" y="403.5" as="targetPoint" />
            <Array as="points">
              <mxPoint x="790" y="500" />
              <mxPoint x="805" y="360" />
            </Array>
          </mxGeometry>
        </mxCell>
        <mxCell id="69" value="" style="edgeStyle=segmentEdgeStyle;strokeColor=#D100D9;strokeWidth=2;exitX=0.555;exitY=0.003;exitDx=0;exitDy=0;exitPerimeter=0;entryX=0.5;entryY=0;entryDx=0;entryDy=0;" parent="1" source="5" target="8" edge="1">
          <mxGeometry width="100" height="100" relative="1" as="geometry">
            <mxPoint x="634.7800000000001" y="374.35999999999996" as="sourcePoint" />
            <mxPoint x="777" y="240" as="targetPoint" />
            <Array as="points">
              <mxPoint x="635" y="330" />
              <mxPoint x="915" y="330" />
            </Array>
          </mxGeometry>
        </mxCell>
        <mxCell id="70" value="Reports, flagged content,&#xa;tweets, posts, live-streams" style="text;spacingTop=-5;align=left;fontColor=#D100D9;fontSize=18;" parent="1" vertex="1">
          <mxGeometry x="680" y="280" width="191" height="46" as="geometry" />
        </mxCell>
        <mxCell id="71" value="Responses, Moderation" style="text;spacingTop=-5;align=left;fontColor=#27F507;fontSize=18;" parent="1" vertex="1">
          <mxGeometry x="710" y="470" width="190" height="28" as="geometry" />
        </mxCell>
        <mxCell id="suALSsnGtb8dUDYRmgGv-98" style="edgeStyle=orthogonalEdgeStyle;rounded=0;orthogonalLoop=1;jettySize=auto;html=1;exitX=0.5;exitY=1;exitDx=0;exitDy=0;" parent="1" source="57" target="57" edge="1">
          <mxGeometry relative="1" as="geometry" />
        </mxCell>
        <mxCell id="rLxRKN44ufM92AqsDXj2-78" style="edgeStyle=orthogonalEdgeStyle;rounded=0;orthogonalLoop=1;jettySize=auto;html=1;exitX=0.25;exitY=1;exitDx=0;exitDy=0;entryX=0.5;entryY=1;entryDx=0;entryDy=0;fontColor=#0000FF;strokeColor=#EB0C05;strokeWidth=2;" parent="1" source="5" target="2" edge="1">
          <mxGeometry relative="1" as="geometry">
            <Array as="points">
              <mxPoint x="537" y="560" />
              <mxPoint x="285" y="560" />
            </Array>
          </mxGeometry>
        </mxCell>
        <mxCell id="5" value="Twitter+" style="shape=process;whiteSpace=wrap;align=center;verticalAlign=middle;size=0.0475;fontStyle=1;strokeWidth=3;fillColor=#FFCCCC;fontSize=20;" parent="1" vertex="1">
          <mxGeometry x="457" y="391" width="320" height="50" as="geometry" />
        </mxCell>
      </root>
    </mxGraphModel>
  </diagram>
</mxfile>
